<svg width="79" height="64" viewBox="0 0 79 64" fill="none" xmlns="http://www.w3.org/2000/svg">
<path d="M50.2727 0C51.2251 0 52.1385 0.374602 52.8119 1.0414C53.4853 1.70819 53.8636 2.61256 53.8636 3.55556V10.6667H68.2273C69.1796 10.6667 70.093 11.0413 70.7664 11.7081C71.4399 12.3749 71.8182 13.2792 71.8182 14.2222V56.8889H79V64H0V56.8889H7.18182V14.2222C7.18182 13.2792 7.56014 12.3749 8.23357 11.7081C8.907 11.0413 9.82036 10.6667 10.7727 10.6667H25.1364V3.55556C25.1364 2.61256 25.5147 1.70819 26.1881 1.0414C26.8615 0.374602 27.7749 0 28.7273 0H50.2727ZM25.1364 17.7778H14.3636V56.8889H25.1364V17.7778ZM46.6818 17.7778H32.3182V56.8889H46.6818V17.7778ZM64.6364 17.7778H53.8636V56.8889H64.6364V17.7778ZM46.6818 7.11111H32.3182V10.6667H46.6818V7.11111Z" fill="white"/>
</svg>
