<svg width="81" height="57" viewBox="0 0 81 57" fill="none" xmlns="http://www.w3.org/2000/svg">
<path d="M55.6875 38.6786C54.8819 38.6786 54.1093 39.0003 53.5397 39.5729C52.97 40.1456 52.65 40.9223 52.65 41.7321C52.65 42.542 52.97 43.3187 53.5397 43.8913C54.1093 44.464 54.8819 44.7857 55.6875 44.7857H65.8125C66.6181 44.7857 67.3907 44.464 67.9603 43.8913C68.53 43.3187 68.85 42.542 68.85 41.7321C68.85 40.9223 68.53 40.1456 67.9603 39.5729C67.3907 39.0003 66.6181 38.6786 65.8125 38.6786H55.6875ZM0 13.2321C0 9.72276 1.38676 6.35711 3.85521 3.8756C6.32365 1.3941 9.67159 0 13.1625 0H67.8375C69.566 0 71.2776 0.34226 72.8746 1.00724C74.4715 1.67222 75.9225 2.64689 77.1448 3.8756C78.3671 5.10432 79.3366 6.56302 79.9981 8.16842C80.6595 9.77382 81 11.4945 81 13.2321V43.7679C81 45.5055 80.6595 47.2262 79.9981 48.8316C79.3366 50.437 78.3671 51.8957 77.1448 53.1244C75.9225 54.3531 74.4715 55.3278 72.8746 55.9928C71.2776 56.6577 69.566 57 67.8375 57H13.1625C9.67159 57 6.32365 55.6059 3.85521 53.1244C1.38676 50.6429 0 47.2772 0 43.7679V13.2321ZM74.925 18.3214V13.2321C74.925 11.3425 74.1783 9.5302 72.8491 8.19401C71.52 6.85781 69.7172 6.10714 67.8375 6.10714H13.1625C11.2828 6.10714 9.48005 6.85781 8.15088 8.19401C6.82172 9.5302 6.075 11.3425 6.075 13.2321V18.3214H74.925ZM6.075 24.4286V43.7679C6.075 47.7009 9.2502 50.8929 13.1625 50.8929H67.8375C69.7172 50.8929 71.52 50.1422 72.8491 48.806C74.1783 47.4698 74.925 45.6575 74.925 43.7679V24.4286H6.075Z" fill="white"/>
</svg>
