<svg width="89" height="80" viewBox="0 0 89 80" fill="none" xmlns="http://www.w3.org/2000/svg">
<path d="M8.09091 71.9135V18.1385C8.09066 17.3086 8.34598 16.4986 8.8222 15.8187C9.29842 15.1388 9.97246 14.6218 10.7528 14.3379L49.8764 0.121904C50.182 0.0107388 50.5099 -0.0251365 50.8324 0.0173196C51.1548 0.0597758 51.4623 0.179312 51.7286 0.365792C51.995 0.552273 52.2125 0.800199 52.3626 1.08855C52.5127 1.3769 52.591 1.69718 52.5909 2.02222V22.0484L78.142 30.5594C78.9479 30.8276 79.6488 31.3426 80.1455 32.0313C80.6421 32.72 80.9093 33.5474 80.9091 34.3964V71.9135H89V80H0V71.9135H8.09091ZM16.1818 71.9135H44.5V10.6828L16.1818 20.9688V71.9135ZM72.8182 71.9135V37.3116L52.5909 30.5715V71.9135H72.8182Z" fill="white"/>
</svg>
